# xmcd
#
# Track frame offsets:
#  150
#  23338
#  46219
#  61628
#  81332
#  111773
#  151849
#
# Disc length: 2285 seconds
#
# Revision: 0
# Processed by: cddbd v1.5.1PL0 Copyright (c) Steve Scherf et al.
# Submitted via: Collectorz.com Music Collector 6.9
#
DISCID=4208eb07
DTITLE=steve earle - Mccabe's Guitar Shop - 19th Dec 1987 - Late Show - Disc 2
DYEAR=1987
DGENRE=
TTITLE0=I Ain't Ever Satisfied
TTITLE1=Nothing But A Child
TTITLE2=Down The Road
TTITLE3=Fearless Heart
TTITLE4=White Freightliner Blues
TTITLE5=Nebraska
TTITLE6=Continental Trailway Blues
EXTD=
EXTT0=
EXTT1=
EXTT2=
EXTT3=
EXTT4=
EXTT5=
EXTT6=
PLAYORDER=
